<svg width="125" height="92" viewBox="0 0 125 92" fill="none" xmlns="http://www.w3.org/2000/svg">
<path d="M3.00012 71.9861C6.20975 74.731 9.20706 77.5223 12.0179 80.6442C13.9247 82.7614 17.3954 88.7038 21.0529 85.6212C24.2059 82.9639 26.069 78.1081 27.5108 74.7945C30.6315 67.6215 35.6826 53.9235 38.2599 47.1859C38.3344 46.9917 52.6461 11.7542 53.2251 12.2101C55.826 14.2582 54.2185 30.9203 54.2234 32.8591C54.2481 42.6055 54.0312 52.333 53.3189 62.0567C53.285 62.5194 53.0993 63.8725 53.0104 63.4168C52.391 60.241 51.9788 57.0321 51.4362 53.8442C49.7745 44.0812 48.4503 34.1166 45.9981 24.4939C44.7168 19.4661 40.5288 6.4158 35.1005 15.8465C28.9309 26.5651 24.3918 39.1351 22.8331 51.2751C22.1399 56.6729 22.7008 63.0221 25.9081 67.7237C39.4703 87.6039 50.1151 46.934 53.8966 38.7495C55.1585 36.0184 58.1961 43.3643 58.6856 44.1595C59.8903 46.1165 61.443 48.5999 63.3589 50.0191C65.8311 51.8494 67.084 46.8413 67.5845 45.5294C68.1204 44.1235 68.6649 39.1398 71.0057 39.691C75.6103 40.7755 77.937 39.8261 80.2176 35.8143C81.2787 33.9469 84.4032 35.9435 86.3444 34.3998C88.2848 32.8567 88.504 29.5887 91.1334 28.7936C95.2836 27.5389 97.8776 30.0753 101.086 25.7193C105.11 20.2562 107.336 10.7418 102.901 4.83041C100.496 1.62497 97.4219 2.92952 95.9431 6.42615C92.1531 15.3885 92.1811 30.0084 92.7077 38.6091C94.3261 65.0378 101.648 90.7893 109.52 88.9024" stroke="black" stroke-width="5" stroke-linecap="round"/>
<path d="M67.8303 78.7745C83.1409 66.8878 98.3333 54.8381 114.21 43.6294C115.992 42.371 117.822 41.1743 119.634 39.9551C120.302 39.5056 122.112 39.0985 121.568 38.5173C120.823 37.7212 114.894 38.5173 113.621 38.5173" stroke="black" stroke-width="5" stroke-linecap="round"/>
</svg>
